<?xml version="1.0" standalone="no"?>
<!DOCTYPE svg PUBLIC "-//W3C//DTD SVG 1.1//EN" "http://www.w3.org/Graphics/SVG/1.1/DTD/svg11.dtd" >
<svg xmlns="http://www.w3.org/2000/svg">
<metadata></metadata>
<defs>
<font id="dobra_lightregular" horiz-adv-x="1044" >
<font-face units-per-em="2048" ascent="1536" descent="-512" />
<missing-glyph horiz-adv-x="368" />
<glyph unicode="&#xfb01;" horiz-adv-x="983" d="M20 952v52l185 20v225q0 43 8 76t28.5 64t63 48t105.5 17q57 0 184 -31v-51h-184q-67 0 -95 -25t-28 -98v-225h553v-1024h-82v952h-471v-952h-82v952h-185zM758 1208v226h82v-226h-82z" />
<glyph unicode="&#xfb02;" horiz-adv-x="1024" d="M20 952v52l185 20v225q0 43 8 76t28.5 64t63 48t105.5 17q57 0 184 -31v-51h-184q-67 0 -95 -25t-28 -98v-225h307v-72h-307v-952h-82v952h-185zM758 184v1250h82v-1250q0 -78 29 -100.5t135 -22.5v-71q-80 -7 -130 1t-75 35.5t-33 63t-8 94.5z" />
<glyph unicode="&#xfb03;" horiz-adv-x="1566" d="M51 952v52l185 20v225q0 43 7.5 76t28 64t63 48t105.5 17q58 0 185 -31v-51h-185q-67 0 -95 -25t-28 -98v-225h471v225q0 43 8 76t28.5 64t63 48t105.5 17q58 0 185 -31v-51h-185q-67 0 -95 -25t-28 -98v-225h553v-1024h-82v952h-471v-952h-82v952h-471v-952h-81v952 h-185zM1341 1208v226h82v-226h-82z" />
<glyph unicode="&#xfb04;" horiz-adv-x="1607" d="M51 952v52l185 20v225q0 43 7.5 76t28 64t63 48t105.5 17q58 0 185 -31v-51h-185q-67 0 -95 -25t-28 -98v-225h471v225q0 43 8 76t28.5 64t63 48t105.5 17q58 0 185 -31v-51h-185q-67 0 -95 -25t-28 -98v-225h308v-72h-308v-952h-82v952h-471v-952h-81v952h-185z M1341 184v1250h82v-1250q0 -78 29 -100.5t135 -22.5v-71q-80 -7 -130 1t-75 35.5t-33 63t-8 94.5z" />
<glyph horiz-adv-x="2048" />
<glyph horiz-adv-x="2048" />
<glyph unicode="&#xd;" horiz-adv-x="2048" />
<glyph unicode=" "  horiz-adv-x="368" />
<glyph unicode="&#x09;" horiz-adv-x="368" />
<glyph unicode="&#xa0;" horiz-adv-x="368" />
<glyph unicode="!" horiz-adv-x="368" d="M143 0v225h82v-225h-82zM143 840v553h82v-553l-10 -410h-61z" />
<glyph unicode="&#x22;" horiz-adv-x="716" d="M143 1249v144h82v-144l-10 -205h-61zM492 1249v144h81v-144l-10 -205h-61z" />
<glyph unicode="#" horiz-adv-x="1167" d="M164 297v82h174v328h-174v81h174v175h82v-175h328v175h81v-175h175v-81h-175v-328h175v-82h-175v-174h-81v174h-328v-174h-82v174h-174zM420 379h328v328h-328v-328z" />
<glyph unicode="$" horiz-adv-x="1136" d="M143 10v62h400q177 0 267.5 83t90.5 214q0 42 -13.5 79t-32 63t-51.5 50t-58 38t-67.5 29t-64 21t-61.5 17q-81 21 -149 52.5t-129.5 79t-96.5 117t-35 154.5q0 86 31 152t86 105t122.5 60t149.5 25v186h72v-184q134 -3 307 -31v-61h-338q-337 0 -337 -246 q0 -58 27.5 -109t67 -85t94.5 -62.5t98.5 -43.5t90.5 -27q83 -20 145.5 -47t118 -70.5t85.5 -109.5t30 -152q0 -89 -31 -160t-85.5 -117.5t-123.5 -73.5t-149 -34v-189h-72v185q-220 4 -389 30z" />
<glyph unicode="%" horiz-adv-x="1361" d="M164 1126q0 267 211 267q209 0 209 -267q0 -266 -209 -266q-211 0 -211 266zM238 1126q0 -85 32.5 -140.5t104.5 -55.5t103.5 55.5t31.5 140.5t-31.5 140t-103.5 55t-104.5 -55t-32.5 -140zM283 0l737 1393h82l-737 -1393h-82zM778 266q0 266 211 266q209 0 209 -266 t-209 -266q-211 0 -211 266zM852 266q0 -85 32.5 -140.5t104.5 -55.5t103.5 55.5t31.5 140.5t-31.5 140t-103.5 55t-104.5 -55t-32.5 -140z" />
<glyph unicode="&#x26;" horiz-adv-x="1323" d="M143 346q0 121 71 215t189 160q-49 60 -75 94t-55.5 82t-41.5 91.5t-12 90.5q0 161 117.5 247.5t312.5 86.5q35 0 66.5 -2.5t48 -5t66.5 -11t75 -12.5v-61h-256q-338 0 -338 -246q0 -80 60.5 -166t238.5 -278l353 -377q136 166 178 463h80q-53 -336 -201 -522l182 -195 h-123l-121 127q-159 -147 -391 -147q-211 0 -317.5 98.5t-106.5 267.5zM231 348q0 -36 7 -71.5t29 -77t57.5 -72.5t98 -51.5t144.5 -20.5q72 0 161.5 29.5t172.5 103.5l-444 474q-226 -123 -226 -314z" />
<glyph unicode="'" horiz-adv-x="368" d="M143 1249v144h82v-144l-10 -205h-61z" />
<glyph unicode="(" horiz-adv-x="575" d="M123 696q0 259 81 526t230 478h80q-305 -507 -305 -1004q0 -490 305 -1003h-80q-149 211 -230 478t-81 525z" />
<glyph unicode=")" horiz-adv-x="575" d="M61 -307q306 514 306 1003q0 495 -306 1004h80q149 -211 230.5 -478t81.5 -526q0 -257 -81.5 -524.5t-230.5 -478.5h-80z" />
<glyph unicode="*" horiz-adv-x="880" d="M164 1147l10 41l246 -62v267h41v-267l246 62l10 -41l-246 -57l164 -199l-31 -31l-164 205l-164 -205l-30 31l164 199z" />
<glyph unicode="+" d="M164 502v82h317v317h82v-317h318v-82h-318v-318h-82v318h-317z" />
<glyph unicode="," horiz-adv-x="368" d="M143 225h82v-123q0 -183 -30 -368h-52v491z" />
<glyph unicode="-" d="M164 502v82h717v-82h-717z" />
<glyph unicode="." horiz-adv-x="368" d="M143 0v225h82v-225h-82z" />
<glyph unicode="/" horiz-adv-x="901" d="M41 0l737 1393h82l-737 -1393h-82z" />
<glyph unicode="0" horiz-adv-x="1167" d="M143 696q0 73 2.5 131.5t10 127t22 122t36.5 108t55.5 94t77 71t104 47.5t133.5 16q83 0 149.5 -22t112 -58.5t79 -93t52 -114.5t29.5 -135.5t14.5 -143.5t3.5 -150t-3.5 -150t-14.5 -143.5t-29.5 -135t-52 -114.5t-79 -93t-112 -58t-149.5 -22q-65 0 -120 13.5 t-96.5 36.5t-75 58.5t-56.5 75t-40 91t-27 100.5t-16 110.5t-8 114t-2 116.5zM236 696q0 -55 0.5 -92.5t4.5 -93t10 -95t18.5 -88.5t30 -83t44 -69t60 -55.5t79.5 -34t101 -13.5t101 13.5t79.5 34t60 55.5t44 69t30 83t18.5 88.5t10 95t4.5 93t0.5 92.5t-0.5 92.5t-4.5 93 t-10 95t-18.5 89t-30 83.5t-44 68.5t-60 55.5t-79.5 34.5t-101 13.5t-101 -13.5t-79.5 -34.5t-60 -55.5t-44 -68.5t-30 -83.5t-18.5 -89t-10 -95t-4.5 -93t-0.5 -92.5z" />
<glyph unicode="1" horiz-adv-x="665" d="M20 1200l349 203h92v-1403h-92v1300l-308 -174z" />
<glyph unicode="2" horiz-adv-x="1013" d="M82 0v92q392 431 472 526q152 178 193 278q31 75 31 179q0 246 -338 246h-338v61q191 31 338 31q88 0 162.5 -18.5t136 -57.5t96.5 -107.5t35 -160.5q0 -68 -13 -122t-49.5 -125t-115 -170.5t-194 -231.5t-303.5 -334v-4h696v-82h-809z" />
<glyph unicode="3" horiz-adv-x="972" d="M82 10v62h338q170 0 254 72t84 194q0 57 -15.5 104t-50 85t-77 68t-108 57.5t-132.5 49t-160 46.5v92l481 471h-604v82h727v-82l-512 -502q289 -63 416 -181t127 -284q0 -182 -117.5 -273t-312.5 -91q-154 0 -338 30z" />
<glyph unicode="4" d="M61 348v72l535 983h102l-534 -973h512l20 369h72v-369h174v-82h-174v-348h-92v348h-615z" />
<glyph unicode="5" horiz-adv-x="972" d="M82 10v62h338q170 0 254 72t84 194q0 69 -27 125.5t-75.5 101t-128 84.5t-172.5 72t-222 67l31 605h624v-82h-542l-21 -461q183 -48 307.5 -104t192.5 -120.5t96.5 -131.5t28.5 -150q0 -182 -117.5 -273t-312.5 -91q-154 0 -338 30z" />
<glyph unicode="6" horiz-adv-x="1146" d="M143 696q0 77 8 149.5t26 145t46 134t70 115.5t95 92t124 59.5t154 21.5q18 0 35.5 -0.5t29.5 -1t33 -3t29 -3.5t34 -5l32.5 -5t40.5 -6.5t42 -6.5v-61h-276q-90 0 -162 -31t-118 -80.5t-78 -119.5t-47 -140t-21 -149q182 28 303 28q237 0 349 -97t112 -322 q0 -210 -110 -320t-300 -110q-69 0 -126 13.5t-100 36t-77.5 59t-57.5 75t-40 91t-26.5 100.5t-15 110.5t-7 113.5t-1.5 117zM236 697q0 -78 0.5 -120t7 -118.5t19 -121t39 -101.5t63.5 -88t95.5 -53.5t133.5 -22.5q153 0 235 80t82 258q0 170 -87.5 248.5t-280.5 78.5h-307 v-40z" />
<glyph unicode="7" horiz-adv-x="921" d="M61 1311v82h799v-72l-551 -1321h-102l551 1311h-697z" />
<glyph unicode="8" horiz-adv-x="1146" d="M143 324q0 85 25.5 151.5t75.5 114.5t103 80t130 65q-39 17 -68.5 31.5t-69.5 38.5t-68 51.5t-54 63t-39.5 81.5t-13.5 99q0 84 31.5 146t89 97.5t129 52.5t159.5 17t159.5 -17t129 -52.5t89.5 -97.5t32 -146q0 -53 -13.5 -99t-39.5 -81.5t-54 -63t-68 -51.5t-69.5 -38.5 t-68.5 -31.5q77 -33 130 -65t103 -80t75.5 -114.5t25.5 -151.5q0 -93 -32 -160.5t-91.5 -107t-135.5 -58t-172 -18.5t-171.5 18.5t-135 58t-91.5 107t-32 160.5zM236 317q0 -245 337 -245q338 0 338 245q0 45 -10 84t-24.5 68.5t-42 57t-51.5 46.5t-64.5 40.5t-69 34.5 t-76.5 34q-48 -21 -76.5 -34t-69 -34.5t-64.5 -40.5t-51 -46.5t-41.5 -57t-24.5 -68.5t-10 -84zM256 1106q0 -52 18.5 -95.5t44.5 -73.5t73 -60t83.5 -47.5t97.5 -43.5q50 21 81.5 36t73 38t67 46t50 53t35.5 67t11 80q0 115 -74.5 165t-243.5 50t-243 -50t-74 -165z" />
<glyph unicode="9" horiz-adv-x="1146" d="M143 983q0 210 110 320t300 110q69 0 126 -13.5t100 -36.5t77.5 -59t57.5 -74.5t40 -91.5t26.5 -101t15 -110.5t7 -113.5t1.5 -117q0 -110 -15.5 -208.5t-54 -193t-96.5 -163t-149.5 -110t-207.5 -41.5q-46 0 -91.5 4t-75 8.5t-109.5 17.5v62h276q90 0 162 31t118 80.5 t78 119.5t47 140t21 149q-189 -29 -303 -29q-237 0 -349 97.5t-112 322.5zM236 983q0 -170 88 -249t280 -79h307v40q0 78 -0.5 120t-7 118.5t-19 121t-39 102t-63.5 88.5t-95.5 53.5t-133.5 22.5q-153 0 -235 -80t-82 -258z" />
<glyph unicode=":" horiz-adv-x="368" d="M143 0v225h82v-225h-82zM143 614v226h82v-226h-82z" />
<glyph unicode=";" horiz-adv-x="368" d="M143 225h82v-123q0 -183 -30 -368h-52v491zM143 614v226h82v-226h-82z" />
<glyph unicode="&#x3c;" horiz-adv-x="860" d="M164 512v61l532 328v-92l-440 -266l440 -267v-92z" />
<glyph unicode="=" d="M164 297v82h717v-82h-717zM164 707v81h717v-81h-717z" />
<glyph unicode="&#x3e;" horiz-adv-x="860" d="M164 184v92l440 267l-440 266v92l532 -328v-61z" />
<glyph unicode="?" horiz-adv-x="1013" d="M123 1321v61q191 31 338 31q88 0 162.5 -19t136 -59.5t96.5 -112t35 -167.5q0 -69 -14.5 -125.5t-34.5 -96.5t-60 -73.5t-73 -54.5t-91.5 -41.5t-97.5 -31.5t-108 -28l-6 -174h-74l-6 236q144 34 229 64.5t143 75.5t79.5 103t21.5 146q0 122 -84 194t-254 72h-338zM328 0 v225h82v-225h-82z" />
<glyph unicode="@" horiz-adv-x="1759" d="M123 354q0 176 60 328.5t165 259.5t252.5 168t317.5 61q198 0 361.5 -83t260 -236.5t96.5 -347.5q0 -225 -130.5 -364.5t-368.5 -139.5h-68v92h-2q-50 -61 -105 -83.5t-131 -22.5q-103 0 -165 52.5t-62 147.5q0 207 246 207h219v107q0 88 -38 131t-140 43h-238v35 q135 22 238 22q118 0 176.5 -52.5t58.5 -176.5v-447q106 0 188.5 30t131 76t80 108t42.5 118.5t11 114.5q0 111 -34.5 208.5t-96 171t-144 126.5t-181.5 80.5t-205 27.5q-211 0 -378.5 -95t-262.5 -269t-95 -398q0 -154 51 -286.5t139.5 -225.5t213.5 -145.5t268 -52.5 l-6 -54q-157 0 -292.5 58.5t-230 160t-148.5 242.5t-54 303zM662 186q0 -73 50.5 -110t135.5 -37q83 0 152 55.5t69 149.5v98h-215q-192 0 -192 -156z" />
<glyph unicode="A" horiz-adv-x="1167" d="M61 0l465 1403h115l465 -1403h-102l-136 410h-571l-133 -410h-103zM324 492h518l-258 788h-2z" />
<glyph unicode="B" horiz-adv-x="1167" d="M164 0v1393h473q168 0 263 -103t95 -256q0 -104 -47 -185.5t-129 -121.5v-4q107 -34 161 -126t54 -218q0 -167 -94 -273t-264 -106h-512zM256 82h410q129 0 202.5 80.5t73.5 216.5q0 146 -72 221.5t-204 75.5h-410v-594zM256 758h371q131 0 203.5 72t72.5 204 q0 123 -74 200t-202 77h-371v-553z" />
<glyph unicode="C" horiz-adv-x="1126" d="M143 696q0 112 13.5 209t50 193t93.5 163.5t150.5 109.5t215.5 42q147 0 338 -31v-61h-338q-103 0 -182 -40.5t-124.5 -102.5t-74.5 -148t-39 -166t-10 -168q0 -72 7.5 -139t24.5 -140.5t49 -133t78 -108.5t115.5 -76t155.5 -27h338v-62q-184 -30 -338 -30 q-122 0 -215.5 42t-150.5 109.5t-93.5 163t-50 192.5t-13.5 209z" />
<glyph unicode="D" horiz-adv-x="1269" d="M164 0v1393h440q88 0 161 -20.5t126 -56.5t94.5 -88t67.5 -111t43 -130.5t23.5 -142t6.5 -148.5t-6.5 -148.5t-23.5 -141.5t-43 -130t-67.5 -111t-94.5 -88t-126 -56.5t-161 -20.5h-440zM256 82h348q86 0 155.5 26.5t115.5 74t78 106t49 130.5t24.5 138.5t7.5 138.5 t-7.5 138.5t-24.5 138.5t-49 130.5t-78 106.5t-115.5 74.5t-155.5 26.5h-348v-1229z" />
<glyph unicode="E" d="M164 0v1393h758v-82h-666v-553h563v-82h-563v-594h666v-82h-758z" />
<glyph unicode="F" horiz-adv-x="1024" d="M164 0v1393h758v-82h-666v-594h584v-82h-584v-635h-92z" />
<glyph unicode="G" horiz-adv-x="1208" d="M143 696q0 112 13.5 209t50 193t93.5 163.5t150.5 109.5t215.5 42q187 0 378 -31v-61h-378q-103 0 -182 -40.5t-124.5 -102.5t-74.5 -148t-39 -166t-10 -168q0 -90 9.5 -169.5t38.5 -166t75 -147.5t124.5 -101t182.5 -40h286v542h-338v82h430v-686q-184 -30 -378 -30 q-122 0 -215.5 42t-150.5 109.5t-93.5 163t-50 192.5t-13.5 209z" />
<glyph unicode="H" horiz-adv-x="1177" d="M164 0v1393h92v-635h666v635h92v-1393h-92v676h-666v-676h-92z" />
<glyph unicode="I" horiz-adv-x="419" d="M164 0v1393h92v-1393h-92z" />
<glyph unicode="J" horiz-adv-x="593" d="M20 10v62h185q133 0 133 112v1209h92v-1209q0 -88 -52 -146t-173 -58q-62 0 -185 30z" />
<glyph unicode="K" horiz-adv-x="1116" d="M164 0v1393h92v-625h195l456 625h117l-489 -666l520 -727h-127l-477 666h-195v-666h-92z" />
<glyph unicode="L" horiz-adv-x="962" d="M164 0v1393h92v-1311h625v-82h-717z" />
<glyph unicode="M" horiz-adv-x="1474" d="M133 0l96 1393h115l391 -1229h4l373 1229h115l114 -1393h-86l-104 1208h-2l-373 -1208h-84l-383 1208h-4l-86 -1208h-86z" />
<glyph unicode="N" horiz-adv-x="1228" d="M164 0v1393h92l713 -1219h4v1219h92v-1393h-92l-713 1208h-4v-1208h-92z" />
<glyph unicode="O" horiz-adv-x="1290" d="M143 696q0 80 5.5 150t20.5 144t39 134.5t63 115.5t90.5 92t123.5 59t160 22t160 -22t123.5 -59t90.5 -92t63 -115.5t39 -134.5t20.5 -144t5.5 -150t-5.5 -150t-20.5 -144t-39 -134.5t-63 -115t-90.5 -91.5t-123.5 -59t-160 -22t-160 22t-123.5 59t-90.5 91.5t-63 115 t-39 134.5t-20.5 144t-5.5 150zM236 696q0 -624 409 -624q410 0 410 624q0 625 -410 625q-409 0 -409 -625z" />
<glyph unicode="P" horiz-adv-x="1146" d="M164 0v1393h481q180 0 279.5 -106t99.5 -273q0 -176 -98 -277.5t-281 -101.5h-389v-635h-92zM256 717h379q143 0 220 75.5t77 221.5q0 136 -78.5 216.5t-218.5 80.5h-379v-594z" />
<glyph unicode="Q" horiz-adv-x="1290" d="M143 696q0 80 5.5 150t20.5 144t39 134.5t63 115.5t90.5 92t123.5 59t160 22t160 -22t123.5 -59t90.5 -92t63 -115.5t39 -134.5t20.5 -144t5.5 -150q0 -109 -10.5 -200.5t-40.5 -185.5t-79 -161t-130.5 -113t-190.5 -54v-105q0 -74 24 -98.5t89 -24.5h184v-51 q-127 -31 -184 -31q-63 0 -105.5 17t-63 48t-28.5 64t-8 76v105q-80 5 -146.5 29.5t-113.5 62.5t-83 92.5t-58 113.5t-36 131t-19 140t-5 145zM236 696q0 -624 409 -624q410 0 410 624q0 625 -410 625q-409 0 -409 -625z" />
<glyph unicode="R" horiz-adv-x="1157" d="M164 0v1393h481q178 0 278.5 -115t100.5 -285q0 -167 -88 -275.5t-248 -121.5l387 -596h-112l-388 594h-319v-594h-92zM256 676h252q86 0 147 7t116.5 27.5t88.5 55.5t52.5 91.5t19.5 135.5q0 139 -79.5 228.5t-217.5 89.5h-379v-635z" />
<glyph unicode="S" horiz-adv-x="1095" d="M123 10v62h399q177 0 268 83t91 214q0 42 -13.5 79t-32 63t-51.5 50t-58.5 38t-68 29t-64 21t-61.5 17q-81 21 -149 52.5t-129 79t-96 117t-35 154.5q0 92 35 160.5t96.5 107.5t136 57.5t162.5 18.5q147 0 338 -31v-61h-338q-338 0 -338 -246q0 -58 27.5 -109t67.5 -85 t95 -62.5t98.5 -43.5t90.5 -27q83 -20 145.5 -47t118 -70.5t85.5 -109.5t30 -152q0 -96 -37 -172t-100.5 -122.5t-143 -70.5t-170.5 -24q-214 0 -399 30z" />
<glyph unicode="T" horiz-adv-x="1075" d="M82 1311v82h911v-82h-409v-1311h-92v1311h-410z" />
<glyph unicode="U" horiz-adv-x="1218" d="M164 492v901h92v-901q0 -41 2 -74t10 -78.5t22 -80.5t41 -71.5t64 -60.5t93 -39.5t126 -15.5q349 0 349 420v901h92v-901q0 -253 -112.5 -382.5t-328.5 -129.5q-217 0 -333.5 130.5t-116.5 381.5z" />
<glyph unicode="V" horiz-adv-x="1167" d="M61 1393h103l420 -1280l420 1280h102l-465 -1403h-115z" />
<glyph unicode="W" horiz-adv-x="1597" d="M61 1393h103l307 -1248h2l268 1258h115l287 -1258h4l287 1248h102l-340 -1403h-109l-290 1233h-4l-269 -1233h-110z" />
<glyph unicode="X" horiz-adv-x="1085" d="M41 0l446 717l-409 676h110l357 -596l350 596h109l-406 -674l446 -719h-112l-393 639l-392 -639h-106z" />
<glyph unicode="Y" horiz-adv-x="1105" d="M61 1393h105l385 -795h4l389 795h100l-448 -901v-492h-92v492z" />
<glyph unicode="Z" horiz-adv-x="1064" d="M102 0v72l729 1239h-690v82h803v-72l-729 -1239h748v-82h-861z" />
<glyph unicode="[" horiz-adv-x="593" d="M164 -307v2007h368v-82h-276v-1843h276v-82h-368z" />
<glyph unicode="\" horiz-adv-x="901" d="M41 1393h82l737 -1393h-82z" />
<glyph unicode="]" horiz-adv-x="593" d="M61 -225h277v1843h-277v82h369v-2007h-369v82z" />
<glyph unicode="^" horiz-adv-x="860" d="M123 532l266 492h82l266 -492h-92l-215 390l-215 -390h-92z" />
<glyph unicode="_" d="M164 -92h717v-82h-717v82z" />
<glyph unicode="`" horiz-adv-x="522" d="M123 1434h133l143 -287h-92z" />
<glyph unicode="a" horiz-adv-x="1003" d="M113 266q0 150 91.5 223.5t260.5 73.5h313v150q0 127 -55 188.5t-201 61.5h-338v51q184 30 338 30q169 0 253.5 -74.5t84.5 -252.5v-717h-82v133h-4q-70 -87 -148.5 -120t-187.5 -33q-148 0 -236.5 75.5t-88.5 210.5zM195 266q0 -104 73 -157.5t193 -53.5q55 0 110 19 t102 54t76 92.5t29 127.5v139h-309q-136 0 -205 -56.5t-69 -164.5z" />
<glyph unicode="b" horiz-adv-x="1064" d="M143 0v1434h82v-543h4q65 83 138.5 118t175.5 35q399 0 399 -532q0 -243 -108 -377.5t-332 -134.5h-359zM225 76h277q94 0 163.5 33t110.5 93.5t60.5 137.5t19.5 172q0 78 -9 142.5t-32 124.5t-59.5 100.5t-96 65t-137.5 24.5q-120 0 -208.5 -80.5t-88.5 -212.5v-600z " />
<glyph unicode="c" horiz-adv-x="901" d="M123 512q0 121 22.5 215t71 167t131 111.5t195.5 38.5t297 -30v-51h-297q-334 0 -334 -451t334 -451h297v-51q-184 -30 -297 -30t-195.5 38.5t-131 111.5t-71 167t-22.5 215z" />
<glyph unicode="d" horiz-adv-x="1064" d="M123 512q0 119 25.5 214.5t78 167.5t138 111t198.5 39q123 0 277 -20v410h82v-1434h-82v133h-4q-65 -83 -138.5 -118t-175.5 -35q-399 0 -399 532zM209 512q0 -78 9 -142.5t32 -124.5t59.5 -100.5t96 -65t137.5 -24.5q120 0 208.5 80.5t88.5 212.5v615h-277 q-94 0 -164 -35.5t-110.5 -98.5t-60 -142t-19.5 -175z" />
<glyph unicode="e" d="M123 512q0 119 25.5 214.5t78 167.5t138 111t198.5 39q85 0 155 -24.5t113.5 -65t67 -91t23.5 -105.5q0 -54 -14 -99t-45.5 -85.5t-92 -63.5t-145.5 -23h-416q7 -426 334 -426h317v-51q-184 -30 -317 -30q-113 0 -195.5 38.5t-131 111.5t-71 167t-22.5 215zM211 563h414 q62 0 106.5 17t67 46.5t32 61.5t9.5 70q0 82 -74.5 143.5t-202.5 61.5q-87 0 -154 -31t-108 -86.5t-63 -126t-27 -156.5z" />
<glyph unicode="f" horiz-adv-x="655" d="M20 952v52l185 20v225q0 43 8 76t28.5 64t63 48t105.5 17q57 0 184 -31v-51h-184q-67 0 -95 -25t-28 -98v-225h307v-72h-307v-952h-82v952h-185z" />
<glyph unicode="g" horiz-adv-x="1064" d="M123 512q0 243 108 377.5t332 134.5h359v-922q0 -121 -22.5 -215t-71 -167t-131 -111.5t-195.5 -38.5q-106 0 -297 31v51h301q334 0 334 450v31h-4q-65 -83 -138.5 -118t-175.5 -35q-399 0 -399 532zM209 512q0 -78 9 -142.5t32 -124.5t59.5 -100.5t96 -65t137.5 -24.5 q120 0 208.5 80.5t88.5 212.5v600h-277q-94 0 -163.5 -33t-110.5 -93.5t-60.5 -137.5t-19.5 -172z" />
<glyph unicode="h" d="M143 0v1434h82v-543h4q119 153 344 153q152 0 240 -84t88 -223v-737h-82v737q0 106 -74.5 169t-191.5 63q-78 0 -152 -34t-125 -102.5t-51 -156.5v-676h-82z" />
<glyph unicode="i" horiz-adv-x="368" d="M143 0v1024h82v-1024h-82zM143 1208v226h82v-226h-82z" />
<glyph unicode="j" horiz-adv-x="368" d="M143 -410v1434h82v-1024q0 -226 -30 -410h-52zM143 1208v226h82v-226h-82z" />
<glyph unicode="k" horiz-adv-x="942" d="M143 0v1434h82v-861h150l397 451h109l-424 -481l485 -543h-121l-442 492h-154v-492h-82z" />
<glyph unicode="l" horiz-adv-x="409" d="M143 184v1250h82v-1250q0 -78 29 -100.5t135 -22.5v-71q-37 -3 -68 -3q-35 0 -62 4q-50 8 -75 35.5t-33 63t-8 94.5z" />
<glyph unicode="m" horiz-adv-x="1720" d="M143 0v1024h82v-133h4q119 153 344 153q112 0 191 -46t113 -128h8q75 96 164.5 135t199.5 39q152 0 240 -84t88 -223v-737h-82v737q0 106 -74.5 169t-191.5 63q-119 0 -220.5 -78t-107.5 -203v-688h-82v737q0 106 -74.5 169t-191.5 63q-78 0 -152 -34t-125 -102.5 t-51 -156.5v-676h-82z" />
<glyph unicode="n" d="M143 0v1024h82v-133h4q119 153 344 153q152 0 240 -84t88 -223v-737h-82v737q0 106 -74.5 169t-191.5 63q-78 0 -152 -34t-125 -102.5t-51 -156.5v-676h-82z" />
<glyph unicode="o" horiz-adv-x="1085" d="M123 512q0 121 22.5 215t71 167t131 111.5t195.5 38.5t195.5 -38.5t131 -111.5t71 -167t22.5 -215t-22.5 -215t-71 -167t-131 -111.5t-195.5 -38.5t-195.5 38.5t-131 111.5t-71 167t-22.5 215zM209 512q0 -77 10 -142t33.5 -124.5t61 -100.5t96 -65.5t133.5 -24.5 t133.5 24.5t96 65.5t61 100.5t33.5 124.5t10 142t-10 142t-33.5 124.5t-61 100.5t-96 65.5t-133.5 24.5t-133.5 -24.5t-96 -65.5t-61 -100.5t-33.5 -124.5t-10 -142z" />
<glyph unicode="p" horiz-adv-x="1064" d="M143 -410v1434h82v-133h4q65 83 138.5 118t175.5 35q399 0 399 -532q0 -119 -25.5 -214.5t-78 -167.5t-138 -111t-198.5 -39q-123 0 -277 20v-410h-82zM225 61h277q94 0 164 35.5t110.5 98.5t60 142t19.5 175q0 78 -9 142.5t-32 124.5t-59.5 100.5t-96 65t-137.5 24.5 q-120 0 -208.5 -80.5t-88.5 -212.5v-615z" />
<glyph unicode="q" horiz-adv-x="1064" d="M123 512q0 243 108 377.5t332 134.5h359v-1434h-82v543h-4q-65 -83 -138.5 -118t-175.5 -35q-399 0 -399 532zM209 512q0 -78 9 -142.5t32 -124.5t59.5 -100.5t96 -65t137.5 -24.5q120 0 208.5 80.5t88.5 212.5v600h-277q-94 0 -163.5 -33t-110.5 -93.5t-60.5 -137.5 t-19.5 -172z" />
<glyph unicode="r" horiz-adv-x="675" d="M143 0v1024h82v-174h4q49 95 143 144.5t201 49.5v-92h-20q-137 0 -232.5 -94t-95.5 -223v-635h-82z" />
<glyph unicode="s" horiz-adv-x="962" d="M123 10v51h348q71 0 125 14.5t83.5 36.5t48.5 51t24.5 53.5t5.5 49.5q0 37 -9.5 64.5t-37 56.5t-83.5 52.5t-141 41.5q-76 16 -125 31t-96.5 38.5t-74 54t-42.5 76.5t-16 107q0 122 99 189t270 67q94 0 278 -30v-51h-278q-71 0 -124.5 -11.5t-84 -29t-49 -42t-24 -46 t-5.5 -46.5q0 -37 10 -66t37.5 -60t84.5 -56t142 -43q181 -39 266 -105t85 -192q0 -143 -97.5 -214.5t-271.5 -71.5q-163 0 -348 30z" />
<glyph unicode="t" horiz-adv-x="655" d="M20 952v52l185 20l20 287h62v-287h307v-72h-307v-768q0 -73 28 -98t95 -25h184v-51q-123 -30 -184 -30q-63 0 -105.5 16.5t-63 48t-28.5 64t-8 75.5v768h-185z" />
<glyph unicode="u" d="M143 287v737h82v-737q0 -106 75 -169t192 -63q78 0 152 34t124.5 102.5t50.5 156.5v676h82v-1024h-82v133h-4q-119 -153 -344 -153q-152 0 -240 84t-88 223z" />
<glyph unicode="v" horiz-adv-x="901" d="M20 1024h93l336 -922h4l335 922h93l-383 -1034h-101z" />
<glyph unicode="w" horiz-adv-x="1372" d="M20 1024h93l274 -901h4l244 901h102l260 -901h4l259 901h92l-308 -1034h-98l-260 880h-4l-246 -880h-98z" />
<glyph unicode="x" horiz-adv-x="1003" d="M61 0l385 535l-354 489h105l307 -426l297 426h100l-346 -487l387 -537h-106l-338 467l-336 -467h-101z" />
<glyph unicode="y" horiz-adv-x="901" d="M20 1024h93l338 -922h4l333 922h93l-359 -963q-49 -132 -122 -268.5t-134 -222.5l-55 39l199 371z" />
<glyph unicode="z" horiz-adv-x="952" d="M92 0v66l647 886h-626v72h737v-66l-647 -886h657v-72h-768z" />
<glyph unicode="{" horiz-adv-x="628" d="M123 645v105q35 4 60 18.5t39 34.5t22 52.5t10 62.5t2 75v387q0 179 77 249.5t234 70.5v-86q-37 0 -64 -3t-60 -16.5t-54.5 -37t-36 -68t-14.5 -105.5v-444q0 -115 -38 -169t-114 -73v-4q76 -19 114 -72.5t38 -168.5v-445q0 -61 14.5 -105t36 -67.5t54.5 -37t60 -16.5 t64 -3v-86q-77 0 -132 15t-96.5 50.5t-62 98.5t-20.5 155v387q0 45 -2 75.5t-10 63t-22 53t-39 35.5t-60 19z" />
<glyph unicode="|" horiz-adv-x="399" d="M164 -205v1802h72v-1802h-72z" />
<glyph unicode="}" horiz-adv-x="628" d="M61 -221q37 0 64 3t60.5 16.5t54.5 37t36 67.5t15 105v445q0 115 37.5 168.5t113.5 72.5v4q-76 19 -113.5 73t-37.5 169v444q0 61 -15 105.5t-36 68t-54.5 37t-60.5 16.5t-64 3v86q157 0 234.5 -70.5t77.5 -249.5v-387q0 -45 2 -75t10 -62.5t22 -52.5t39 -34.5t60 -18.5 v-105q-35 -4 -60 -19t-39 -35.5t-22 -53t-10 -63t-2 -75.5v-387q0 -179 -77 -249t-235 -70v86z" />
<glyph unicode="~" horiz-adv-x="860" d="M123 748q50 61 95 86.5t99 25.5q49 0 122.5 -36t103.5 -36q77 0 153 82l41 -51q-50 -61 -95 -86.5t-99 -25.5q-33 0 -114 35.5t-112 35.5q-77 0 -153 -82z" />
<glyph unicode="&#xa1;" horiz-adv-x="368" d="M143 184l11 410h61l10 -410v-553h-82v553zM143 799v225h82v-225h-82z" />
<glyph unicode="&#xa2;" horiz-adv-x="1003" d="M143 512q0 119 22 212.5t69.5 165.5t128 112t190.5 42v185h72v-187q80 -2 235 -28v-51h-297q-334 0 -334 -451t334 -451h297v-51q-155 -26 -235 -28v-187h-72v185q-410 8 -410 532z" />
<glyph unicode="&#xa3;" horiz-adv-x="1167" d="M143 645v82h123v113q0 74 3.5 129t14.5 118t31 108t54.5 88.5t82.5 70t117.5 43t157.5 16.5q16 0 30 -0.5t30 -1.5t26 -1.5t29 -3t26.5 -3.5t31 -4.5t30 -4.5t36.5 -6t38 -6v-61h-277q-59 0 -107 -8.5t-84 -21t-64 -36.5t-46.5 -46.5t-31.5 -59t-20 -66t-10.5 -76 t-4.5 -80.5t-1 -87v-113h502v-82h-502v-563h666v-82h-860v82h102v563h-123z" />
<glyph unicode="&#xa4;" horiz-adv-x="1028" d="M139 928l17 16l157 -184q90 74 201 74q112 0 199 -74l157 184l19 -16l-158 -183q100 -94 100 -235q0 -142 -98 -234l154 -176l-19 -18l-155 178q-85 -72 -199 -72q-113 0 -201 72l-151 -178l-19 18l152 176q-96 96 -96 234q0 137 96 233zM223 510q0 -121 86 -209t205 -88 q120 0 206.5 87.5t86.5 209.5t-86.5 210.5t-206.5 88.5q-118 0 -204.5 -88.5t-86.5 -210.5z" />
<glyph unicode="&#xa5;" horiz-adv-x="1146" d="M82 1393h104l385 -795h4l390 795h100l-434 -871h291v-82h-306v-440h-92v440h-307v82h291z" />
<glyph unicode="&#xa6;" horiz-adv-x="399" d="M164 -205v778h72v-778h-72zM164 819v778h72v-778h-72z" />
<glyph unicode="&#xa7;" horiz-adv-x="962" d="M123 -10h348q71 0 125 14.5t83.5 36.5t48.5 51t24.5 53.5t5.5 49.5q0 37 -9.5 64.5t-37 56.5t-83.5 52.5t-141 41.5q-76 16 -125 31t-96.5 38.5t-74 54t-42.5 76.5t-16 107h82q0 -37 10 -66t37.5 -60t84.5 -56t142 -43q181 -39 266 -105t85 -192q0 -143 -97.5 -215 t-271.5 -72q-157 0 -348 31v51zM133 1229q0 122 99 189t270 67q14 0 28 -0.5t25 -1t26.5 -1.5t24 -2t26 -3.5t24.5 -3t28.5 -4t28 -4.5t33 -5.5t34.5 -5.5v-51h-278q-287 0 -287 -174q0 -37 10 -66t37.5 -60t84.5 -56t142 -43q181 -39 266 -105t85 -192h-82q0 37 -9.5 64.5 t-37 56.5t-83.5 52.5t-141 41.5q-76 16 -125 31t-96.5 38.5t-74 54t-42.5 76.5t-16 107z" />
<glyph unicode="&#xa8;" horiz-adv-x="737" d="M123 1208v226h82v-226h-82zM532 1208v226h82v-226h-82z" />
<glyph unicode="&#xa9;" horiz-adv-x="1591" d="M102 696q0 147 55 278t148 224t220.5 147t269.5 54t270 -54t221 -147t148 -224t55 -278t-55 -277.5t-148 -223.5t-221 -147t-270 -54q-189 0 -348 91.5t-252 253t-93 357.5zM150 696q0 -137 51 -259.5t137 -209.5t205.5 -137.5t251.5 -50.5t251.5 50.5t206.5 137.5 t138 209.5t51 259.5t-51 259.5t-138 209t-206.5 137t-251.5 50.5t-251.5 -50.5t-205.5 -137t-137 -209t-51 -259.5zM545 696q0 56 7 104.5t25 96.5t46 82t75 55t107 21q66 0 170 -17v-30h-170q-51 0 -90.5 -20t-62.5 -51t-37.5 -74t-19.5 -83t-5 -84t5 -84t19.5 -83 t37.5 -74.5t62.5 -51.5t90.5 -20h170v-31q-85 -14 -170 -14q-61 0 -107.5 21t-74.5 54.5t-46 81.5t-25 96.5t-7 104.5z" />
<glyph unicode="&#xaa;" horiz-adv-x="632" d="M123 1018q0 76 47 112.5t129 36.5h150v68q0 57 -25 84t-92 27h-174v40q107 17 176 17q89 0 132.5 -37.5t43.5 -128.5v-356h-59l-2 65h-3q-34 -44 -71 -60t-90 -16q-74 0 -118 39.5t-44 108.5zM186 1020q0 -49 32.5 -72.5t86.5 -23.5t99 35.5t45 97.5v63h-140 q-123 0 -123 -100z" />
<glyph unicode="&#xab;" horiz-adv-x="1187" d="M164 512v61l450 328v-92l-358 -266l358 -267v-92zM573 512v61l451 328v-92l-358 -266l358 -267v-92z" />
<glyph unicode="&#xac;" horiz-adv-x="1011" d="M102 502v82h807v-308h-80v226h-727z" />
<glyph unicode="&#xad;" d="M164 502v82h717v-82h-717z" />
<glyph unicode="&#xae;" horiz-adv-x="1591" d="M102 696q0 147 55 278t148 224t220.5 147t269.5 54t270 -54t221 -147t148 -224t55 -278t-55 -277.5t-148 -223.5t-221 -147t-270 -54q-189 0 -348 91.5t-252 253t-93 357.5zM150 696q0 -137 51 -259.5t137 -209.5t205.5 -137.5t251.5 -50.5t251.5 50.5t206.5 137.5 t138 209.5t51 259.5t-51 259.5t-138 209t-206.5 137t-251.5 50.5t-251.5 -50.5t-205.5 -137t-137 -209t-51 -259.5zM588 348v696h241q89 0 139 -57t50 -143q0 -84 -43.5 -138t-124.5 -61l194 -297h-57l-192 297h-160v-297h-47zM635 686h125q110 0 161.5 32t51.5 126 q0 69 -40.5 114.5t-109.5 45.5h-188v-318z" />
<glyph unicode="&#xaf;" horiz-adv-x="778" d="M123 1249v82h532v-82h-532z" />
<glyph unicode="&#xb0;" horiz-adv-x="516" d="M41 1178q0 225 217 225t217 -225q0 -226 -217 -226t-217 226zM106 1178q0 -172 152 -172t152 172t-152 172t-152 -172z" />
<glyph unicode="&#xb1;" d="M164 82v82h717v-82h-717zM164 543v82h317v317h82v-317h318v-82h-318v-318h-82v318h-317z" />
<glyph unicode="&#xb2;" horiz-adv-x="538" d="M61 1044v66q235 254 285.5 323t50.5 144q0 111 -151 111h-174v47q84 16 174 16q97 0 159 -43t62 -133q0 -54 -21 -101t-88.5 -130.5t-212.5 -237.5v-2h332v-60h-416z" />
<glyph unicode="&#xb3;" horiz-adv-x="520" d="M61 1051v47h175q78 0 115.5 33t37.5 88q0 75 -60.5 114.5t-205.5 79.5v47l229 221h-282v60h374v-58l-241 -231q136 -32 196 -89.5t60 -139.5q0 -93 -59.5 -141t-161.5 -48q-88 0 -177 17z" />
<glyph unicode="&#xb4;" horiz-adv-x="522" d="M123 1147l143 287h133l-184 -287h-92z" />
<glyph unicode="&#xb5;" d="M143 -410v1434h82v-676q0 -98 43 -166t108 -97.5t146 -29.5t146 29.5t108 97.5t43 166v676h82v-676q0 -168 -104.5 -268t-274.5 -100q-194 0 -297 122v-512h-82z" />
<glyph unicode="&#xb6;" horiz-adv-x="1187" d="M164 1014q0 167 99.5 273t279.5 106h276v-1393h-92v635h-184q-183 0 -281 101.5t-98 277.5zM932 0v1393h92v-1393h-92z" />
<glyph unicode="&#xb7;" horiz-adv-x="327" d="M123 532v226h82v-226h-82z" />
<glyph unicode="&#xb8;" horiz-adv-x="563" d="M123 -348h133q102 0 102 82q0 90 -143 102v164h61v-113q61 -5 112.5 -42.5t51.5 -100.5q0 -71 -49.5 -112.5t-134.5 -41.5q-66 0 -133 21v41z" />
<glyph unicode="&#xb9;" horiz-adv-x="538" d="M61 1044v60h172v571l-141 -80l-26 52l172 100h65v-643h174v-60h-416z" />
<glyph unicode="&#xba;" horiz-adv-x="679" d="M123 1137q0 266 217 266t217 -266q0 -267 -217 -267t-217 267zM188 1137q0 -213 152 -213t152 213t-152 213t-152 -213z" />
<glyph unicode="&#xbb;" horiz-adv-x="1187" d="M164 184v92l358 267l-358 266v92l450 -328v-61zM573 184v92l359 267l-359 266v92l451 -328v-61z" />
<glyph unicode="&#xbc;" horiz-adv-x="1433" d="M61 696v60h172v571l-141 -80l-26 51l172 101h65v-643h174v-60h-416zM410 0l737 1393h61l-737 -1393h-61zM915 166v55l265 481h71l-264 -477h234l16 176h51v-176h84v-59h-84v-166h-67v166h-306z" />
<glyph unicode="&#xbd;" horiz-adv-x="1433" d="M61 696v60h172v571l-141 -80l-26 51l172 101h65v-643h174v-60h-416zM348 0l737 1393h62l-737 -1393h-62zM956 0v66q225 243 271 303q56 73 63 129q2 15 2 34q0 111 -151 111h-174v47q89 17 174 17q97 0 159 -43.5t62 -133.5q0 -54 -21 -101t-88.5 -130.5t-212.5 -237.5 v-2h332v-59h-416z" />
<glyph unicode="&#xbe;" horiz-adv-x="1433" d="M61 702v48h175q78 0 115.5 33t37.5 87q0 75 -60.5 115t-205.5 80v47l229 221h-282v60h374v-58l-241 -231q256 -61 256 -230q0 -92 -59.5 -140t-161.5 -48q-93 0 -177 16zM369 0l737 1393h61l-737 -1393h-61zM915 166v55l265 481h71l-264 -477h234l16 176h51v-176h84v-59 h-84v-166h-67v166h-306z" />
<glyph unicode="&#xbf;" horiz-adv-x="1013" d="M123 -31q0 69 14.5 125.5t34.5 96.5t60 73.5t73 54.5t91.5 41.5t97.5 31.5t108 28l6 174h74l6 -236q-144 -34 -229 -64.5t-143 -75.5t-79.5 -103t-21.5 -146q0 -122 84 -194t254 -72h338v-61q-191 -31 -338 -31q-88 0 -162.5 19t-136 59.5t-96.5 112t-35 167.5zM604 799 v225h82v-225h-82z" />
<glyph unicode="&#xc0;" horiz-adv-x="1167" d="M61 0l465 1403h115l465 -1403h-102l-136 410h-571l-133 -410h-103zM324 492h518l-258 788h-2zM350 1782h133l144 -287h-92z" />
<glyph unicode="&#xc1;" horiz-adv-x="1167" d="M61 0l465 1403h115l465 -1403h-102l-136 410h-571l-133 -410h-103zM324 492h518l-258 788h-2zM553 1495l143 287h133l-184 -287h-92z" />
<glyph unicode="&#xc2;" horiz-adv-x="1167" d="M61 0l465 1403h115l465 -1403h-102l-136 410h-571l-133 -410h-103zM324 492h518l-258 788h-2zM338 1495l205 287h82l204 -287h-92l-153 184l-154 -184h-92z" />
<glyph unicode="&#xc3;" horiz-adv-x="1167" d="M61 0l465 1403h115l465 -1403h-102l-136 410h-571l-133 -410h-103zM276 1608q50 61 95.5 86.5t99.5 25.5q49 0 122 -35.5t103 -35.5q78 0 154 82l41 -52q-50 -61 -95.5 -86.5t-99.5 -25.5q-33 0 -113.5 35.5t-111.5 35.5q-78 0 -154 -82zM324 492h518l-258 788h-2z" />
<glyph unicode="&#xc4;" horiz-adv-x="1167" d="M61 0l465 1403h115l465 -1403h-102l-136 410h-571l-133 -410h-103zM324 492h518l-258 788h-2zM338 1556v226h82v-226h-82zM748 1556v226h81v-226h-81z" />
<glyph unicode="&#xc5;" horiz-adv-x="1167" d="M61 0l465 1403h115l465 -1403h-102l-136 410h-571l-133 -410h-103zM324 492h518l-258 788h-2zM414 1618q0 164 172 164q170 0 170 -164t-170 -164q-172 0 -172 164zM475 1618q0 -113 111 -113q108 0 108 113t-108 113q-111 0 -111 -113z" />
<glyph unicode="&#xc6;" horiz-adv-x="1740" d="M61 0l762 1393h795v-82h-666v-553h564v-82h-564v-594h666v-82h-758v410h-477l-219 -410h-103zM428 492h432v788h-8z" />
<glyph unicode="&#xc7;" horiz-adv-x="1126" d="M143 696q0 112 13.5 209t50 193t93.5 163.5t150.5 109.5t215.5 42q147 0 338 -31v-61h-338q-103 0 -182 -40.5t-124.5 -102.5t-74.5 -148t-39 -166t-10 -168q0 -72 7.5 -139t24.5 -140.5t49 -133t78 -108.5t115.5 -76t155.5 -27h338v-62q-171 -27 -318 -30v-93 q61 -5 112.5 -42.5t51.5 -100.5q0 -71 -49.5 -112.5t-134.5 -41.5q-67 0 -134 21v41h134q102 0 102 82q0 90 -143 102v146q-112 7 -198 51.5t-138.5 112t-86 160.5t-46.5 187.5t-13 202.5z" />
<glyph unicode="&#xc8;" d="M164 0v1393h758v-82h-666v-553h563v-82h-563v-594h666v-82h-758zM319 1782h134l143 -287h-92z" />
<glyph unicode="&#xc9;" d="M164 0v1393h758v-82h-666v-553h563v-82h-563v-594h666v-82h-758zM465 1495l143 287h133l-184 -287h-92z" />
<glyph unicode="&#xca;" d="M164 0v1393h758v-82h-666v-553h563v-82h-563v-594h666v-82h-758zM328 1495l204 287h82l205 -287h-92l-154 184l-153 -184h-92z" />
<glyph unicode="&#xcb;" d="M164 0v1393h758v-82h-666v-553h563v-82h-563v-594h666v-82h-758zM301 1556v226h82v-226h-82zM711 1556v226h82v-226h-82z" />
<glyph unicode="&#xcc;" horiz-adv-x="419" d="M-25 1782h134l143 -287h-92zM164 0v1393h92v-1393h-92z" />
<glyph unicode="&#xcd;" horiz-adv-x="419" d="M164 0v1393h92v-1393h-92zM168 1495l143 287h133l-184 -287h-92z" />
<glyph unicode="&#xce;" horiz-adv-x="419" d="M-37 1495l205 287h82l205 -287h-93l-153 184l-154 -184h-92zM162 0v1393h92v-1393h-92z" />
<glyph unicode="&#xcf;" horiz-adv-x="419" d="M-37 1556v226h82v-226h-82zM166 0v1393h92v-1393h-92zM373 1556v226h82v-226h-82z" />
<glyph unicode="&#xd0;" horiz-adv-x="1269" d="M0 666v82h164v645h440q88 0 161 -20.5t126 -56.5t94.5 -88t67.5 -111t43 -130.5t23.5 -142t6.5 -148.5t-6.5 -148.5t-23.5 -141.5t-43 -130t-67.5 -111t-94.5 -88t-126 -56.5t-161 -20.5h-440v666h-164zM256 82h348q86 0 155.5 26.5t115.5 74t78 106t49 130.5t24.5 138.5 t7.5 138.5t-7.5 138.5t-24.5 138.5t-49 130.5t-78 106.5t-115.5 74.5t-155.5 26.5h-348v-563h256v-82h-256v-584z" />
<glyph unicode="&#xd1;" horiz-adv-x="1228" d="M164 0v1393h92l713 -1219h4v1219h92v-1393h-92l-713 1208h-4v-1208h-92zM307 1608q50 61 95.5 86.5t99.5 25.5q49 0 122 -35.5t103 -35.5q78 0 154 82l41 -52q-50 -61 -95.5 -86.5t-99.5 -25.5q-33 0 -113.5 35.5t-111.5 35.5q-78 0 -154 -82z" />
<glyph unicode="&#xd2;" horiz-adv-x="1290" d="M143 696q0 80 5.5 150t20.5 144t39 134.5t63 115.5t90.5 92t123.5 59t160 22t160 -22t123.5 -59t90.5 -92t63 -115.5t39 -134.5t20.5 -144t5.5 -150t-5.5 -150t-20.5 -144t-39 -134.5t-63 -115t-90.5 -91.5t-123.5 -59t-160 -22t-160 22t-123.5 59t-90.5 91.5t-63 115 t-39 134.5t-20.5 144t-5.5 150zM236 696q0 -624 409 -624q410 0 410 624q0 625 -410 625q-409 0 -409 -625zM410 1782h133l143 -287h-92z" />
<glyph unicode="&#xd3;" horiz-adv-x="1290" d="M143 696q0 80 5.5 150t20.5 144t39 134.5t63 115.5t90.5 92t123.5 59t160 22t160 -22t123.5 -59t90.5 -92t63 -115.5t39 -134.5t20.5 -144t5.5 -150t-5.5 -150t-20.5 -144t-39 -134.5t-63 -115t-90.5 -91.5t-123.5 -59t-160 -22t-160 22t-123.5 59t-90.5 91.5t-63 115 t-39 134.5t-20.5 144t-5.5 150zM236 696q0 -624 409 -624q410 0 410 624q0 625 -410 625q-409 0 -409 -625zM600 1495l143 287h134l-185 -287h-92z" />
<glyph unicode="&#xd4;" horiz-adv-x="1290" d="M143 696q0 80 5.5 150t20.5 144t39 134.5t63 115.5t90.5 92t123.5 59t160 22t160 -22t123.5 -59t90.5 -92t63 -115.5t39 -134.5t20.5 -144t5.5 -150t-5.5 -150t-20.5 -144t-39 -134.5t-63 -115t-90.5 -91.5t-123.5 -59t-160 -22t-160 22t-123.5 59t-90.5 91.5t-63 115 t-39 134.5t-20.5 144t-5.5 150zM236 696q0 -624 409 -624q410 0 410 624q0 625 -410 625q-409 0 -409 -625zM399 1495l205 287h82l205 -287h-92l-154 184l-153 -184h-93z" />
<glyph unicode="&#xd5;" horiz-adv-x="1290" d="M143 696q0 80 5.5 150t20.5 144t39 134.5t63 115.5t90.5 92t123.5 59t160 22t160 -22t123.5 -59t90.5 -92t63 -115.5t39 -134.5t20.5 -144t5.5 -150t-5.5 -150t-20.5 -144t-39 -134.5t-63 -115t-90.5 -91.5t-123.5 -59t-160 -22t-160 22t-123.5 59t-90.5 91.5t-63 115 t-39 134.5t-20.5 144t-5.5 150zM236 696q0 -624 409 -624q410 0 410 624q0 625 -410 625q-409 0 -409 -625zM338 1608q50 61 95 86.5t99 25.5q49 0 122.5 -35.5t103.5 -35.5q77 0 153 82l41 -52q-50 -61 -95 -86.5t-99 -25.5q-33 0 -114 35.5t-112 35.5q-77 0 -153 -82z" />
<glyph unicode="&#xd6;" horiz-adv-x="1290" d="M143 696q0 80 5.5 150t20.5 144t39 134.5t63 115.5t90.5 92t123.5 59t160 22t160 -22t123.5 -59t90.5 -92t63 -115.5t39 -134.5t20.5 -144t5.5 -150t-5.5 -150t-20.5 -144t-39 -134.5t-63 -115t-90.5 -91.5t-123.5 -59t-160 -22t-160 22t-123.5 59t-90.5 91.5t-63 115 t-39 134.5t-20.5 144t-5.5 150zM236 696q0 -624 409 -624q410 0 410 624q0 625 -410 625q-409 0 -409 -625zM399 1556v226h82v-226h-82zM809 1556v226h82v-226h-82z" />
<glyph unicode="&#xd7;" horiz-adv-x="1007" d="M164 260l282 283l-282 282l57 58l283 -283l282 283l58 -58l-283 -282l283 -283l-58 -57l-282 282l-283 -282z" />
<glyph unicode="&#xd8;" horiz-adv-x="1290" d="M143 -82l133 225q-133 177 -133 553q0 80 5.5 150t20.5 144t39 134.5t63 115.5t90.5 92t123.5 59t160 22q198 0 318 -110l102 172h82l-135 -228q135 -177 135 -551q0 -80 -5.5 -150t-20.5 -144t-39 -134.5t-63 -115t-90.5 -91.5t-123.5 -59t-160 -22q-198 0 -319 108 l-101 -170h-82zM236 696q0 -305 96 -460l579 981q-97 104 -266 104q-409 0 -409 -625zM377 176q101 -104 268 -104q410 0 410 624q0 305 -97 459z" />
<glyph unicode="&#xd9;" horiz-adv-x="1218" d="M164 492v901h92v-901q0 -41 2 -74t10 -78.5t22 -80.5t41 -71.5t64 -60.5t93 -39.5t126 -15.5q349 0 349 420v901h92v-901q0 -253 -112.5 -382.5t-328.5 -129.5q-217 0 -333.5 130.5t-116.5 381.5zM389 1782h133l144 -287h-93z" />
<glyph unicode="&#xda;" horiz-adv-x="1218" d="M164 492v901h92v-901q0 -41 2 -74t10 -78.5t22 -80.5t41 -71.5t64 -60.5t93 -39.5t126 -15.5q349 0 349 420v901h92v-901q0 -253 -112.5 -382.5t-328.5 -129.5q-217 0 -333.5 130.5t-116.5 381.5zM571 1495l144 287h133l-184 -287h-93z" />
<glyph unicode="&#xdb;" horiz-adv-x="1218" d="M164 492v901h92v-901q0 -41 2 -74t10 -78.5t22 -80.5t41 -71.5t64 -60.5t93 -39.5t126 -15.5q349 0 349 420v901h92v-901q0 -253 -112.5 -382.5t-328.5 -129.5q-217 0 -333.5 130.5t-116.5 381.5zM362 1495l205 287h82l205 -287h-92l-154 184l-153 -184h-93z" />
<glyph unicode="&#xdc;" horiz-adv-x="1218" d="M164 492v901h92v-901q0 -41 2 -74t10 -78.5t22 -80.5t41 -71.5t64 -60.5t93 -39.5t126 -15.5q349 0 349 420v901h92v-901q0 -253 -112.5 -382.5t-328.5 -129.5q-217 0 -333.5 130.5t-116.5 381.5zM362 1556v226h82v-226h-82zM772 1556v226h82v-226h-82z" />
<glyph unicode="&#xdd;" horiz-adv-x="1105" d="M61 1393h105l385 -795h4l389 795h100l-448 -901v-492h-92v492zM483 1495l144 287h133l-185 -287h-92z" />
<glyph unicode="&#xde;" horiz-adv-x="1146" d="M164 0v1393h92v-318h389q183 0 281 -105.5t98 -273.5q0 -176 -98 -277.5t-281 -101.5h-389v-317h-92zM256 399h379q143 0 220 75.5t77 221.5q0 136 -78.5 216.5t-218.5 80.5h-379v-594z" />
<glyph unicode="&#xdf;" horiz-adv-x="1269" d="M51 952v52l185 20q0 95 19.5 167t52.5 117.5t83 74t104.5 40t122.5 11.5q355 0 355 -267q0 -57 -23.5 -114t-57.5 -101.5t-68 -84.5t-57.5 -76.5t-23.5 -63.5q0 -35 26 -68.5t65.5 -60t85 -61t85 -69.5t65.5 -88t26 -114q0 -136 -99 -211t-270 -75q-123 0 -246 30v51h246 q71 0 125 14.5t83.5 36.5t48.5 51t24.5 53.5t5.5 49.5q0 42 -26.5 84.5t-66.5 76t-86.5 71.5t-86.5 71t-66.5 74.5t-26.5 83.5q0 35 24.5 75t59 79t69 80.5t59 93t24.5 102.5q0 56 -20.5 96t-48 60.5t-70 32t-72 14t-68.5 2.5q-73 0 -128 -20t-86 -51.5t-50 -78t-25 -90.5 t-6 -98v-1024h-81v952h-185z" />
<glyph unicode="&#xe0;" horiz-adv-x="1003" d="M113 266q0 150 91.5 223.5t260.5 73.5h313v150q0 127 -55 188.5t-201 61.5h-338v51q184 30 338 30q169 0 253.5 -74.5t84.5 -252.5v-717h-82v133h-4q-70 -87 -148.5 -120t-187.5 -33q-148 0 -236.5 75.5t-88.5 210.5zM195 266q0 -104 73 -157.5t193 -53.5q55 0 110 19 t102 54t76 92.5t29 127.5v139h-309q-136 0 -205 -56.5t-69 -164.5zM307 1434h133l144 -287h-92z" />
<glyph unicode="&#xe1;" horiz-adv-x="1003" d="M113 266q0 150 91.5 223.5t260.5 73.5h313v150q0 127 -55 188.5t-201 61.5h-338v51q184 30 338 30q169 0 253.5 -74.5t84.5 -252.5v-717h-82v133h-4q-70 -87 -148.5 -120t-187.5 -33q-148 0 -236.5 75.5t-88.5 210.5zM195 266q0 -104 73 -157.5t193 -53.5q55 0 110 19 t102 54t76 92.5t29 127.5v139h-309q-136 0 -205 -56.5t-69 -164.5zM446 1147l144 287h133l-184 -287h-93z" />
<glyph unicode="&#xe2;" horiz-adv-x="1003" d="M113 266q0 150 91.5 223.5t260.5 73.5h313v150q0 127 -55 188.5t-201 61.5h-338v51q184 30 338 30q169 0 253.5 -74.5t84.5 -252.5v-717h-82v133h-4q-70 -87 -148.5 -120t-187.5 -33q-148 0 -236.5 75.5t-88.5 210.5zM195 266q0 -104 73 -157.5t193 -53.5q55 0 110 19 t102 54t76 92.5t29 127.5v139h-309q-136 0 -205 -56.5t-69 -164.5zM276 1147l205 287h82l205 -287h-92l-154 184l-153 -184h-93z" />
<glyph unicode="&#xe3;" horiz-adv-x="1003" d="M113 266q0 150 91.5 223.5t260.5 73.5h313v150q0 127 -55 188.5t-201 61.5h-338v51q184 30 338 30q169 0 253.5 -74.5t84.5 -252.5v-717h-82v133h-4q-70 -87 -148.5 -120t-187.5 -33q-148 0 -236.5 75.5t-88.5 210.5zM195 266q0 -104 73 -157.5t193 -53.5q55 0 110 19 t102 54t76 92.5t29 127.5v139h-309q-136 0 -205 -56.5t-69 -164.5zM215 1260q50 61 95.5 86.5t99.5 25.5q49 0 122 -36t103 -36q77 0 153 82l41 -51q-50 -61 -95 -86.5t-99 -25.5q-33 0 -113.5 35.5t-111.5 35.5q-78 0 -154 -82z" />
<glyph unicode="&#xe4;" horiz-adv-x="1003" d="M113 266q0 150 91.5 223.5t260.5 73.5h313v150q0 127 -55 188.5t-201 61.5h-338v51q184 30 338 30q169 0 253.5 -74.5t84.5 -252.5v-717h-82v133h-4q-70 -87 -148.5 -120t-187.5 -33q-148 0 -236.5 75.5t-88.5 210.5zM195 266q0 -104 73 -157.5t193 -53.5q55 0 110 19 t102 54t76 92.5t29 127.5v139h-309q-136 0 -205 -56.5t-69 -164.5zM256 1208v226h82v-226h-82zM666 1208v226h82v-226h-82z" />
<glyph unicode="&#xe5;" horiz-adv-x="1003" d="M113 266q0 150 91.5 223.5t260.5 73.5h313v150q0 127 -55 188.5t-201 61.5h-338v51q184 30 338 30q169 0 253.5 -74.5t84.5 -252.5v-717h-82v133h-4q-70 -87 -148.5 -120t-187.5 -33q-148 0 -236.5 75.5t-88.5 210.5zM195 266q0 -104 73 -157.5t193 -53.5q55 0 110 19 t102 54t76 92.5t29 127.5v139h-309q-136 0 -205 -56.5t-69 -164.5zM332 1270q0 164 172 164q170 0 170 -164t-170 -164q-172 0 -172 164zM393 1270q0 -113 111 -113q108 0 108 113q0 112 -108 112q-111 0 -111 -112z" />
<glyph unicode="&#xe6;" horiz-adv-x="1703" d="M113 266q0 150 91.5 223.5t260.5 73.5h313v150q0 127 -55 188.5t-201 61.5h-338v51q184 30 338 30q138 0 218.5 -48.5t107.5 -161.5q109 210 375 210q167 0 262.5 -85t95.5 -201q0 -54 -14 -99t-45.5 -85.5t-92 -63.5t-145.5 -23h-416q7 -426 334 -426h318v-51 q-184 -30 -318 -30q-286 0 -377 247q-107 -247 -387 -247q-148 0 -236.5 75.5t-88.5 210.5zM195 266q0 -104 73 -157.5t193 -53.5q55 0 110 19t102 54t76 92.5t29 127.5v139h-309q-136 0 -205 -56.5t-69 -164.5zM870 563h414q62 0 106.5 17t67 46.5t32 61.5t9.5 70 q0 82 -74 143.5t-202 61.5q-87 0 -154 -31t-108.5 -86.5t-63.5 -126t-27 -156.5z" />
<glyph unicode="&#xe7;" horiz-adv-x="901" d="M123 512q0 121 22.5 215t71 167t131 111.5t195.5 38.5t297 -30v-51h-297q-334 0 -334 -451t334 -451h297v-51q-177 -28 -277 -30v-93q61 -5 112.5 -42.5t51.5 -100.5q0 -71 -49.5 -112.5t-134.5 -41.5q-66 0 -133 21v41h133q102 0 102 82q0 90 -143 102v146 q-379 24 -379 530z" />
<glyph unicode="&#xe8;" d="M123 512q0 119 25.5 214.5t78 167.5t138 111t198.5 39q85 0 155 -24.5t113.5 -65t67 -91t23.5 -105.5q0 -54 -14 -99t-45.5 -85.5t-92 -63.5t-145.5 -23h-416q7 -426 334 -426h317v-51q-184 -30 -317 -30q-113 0 -195.5 38.5t-131 111.5t-71 167t-22.5 215zM211 563h414 q62 0 106.5 17t67 46.5t32 61.5t9.5 70q0 82 -74.5 143.5t-202.5 61.5q-87 0 -154 -31t-108 -86.5t-63 -126t-27 -156.5zM346 1434h133l144 -287h-93z" />
<glyph unicode="&#xe9;" d="M123 512q0 119 25.5 214.5t78 167.5t138 111t198.5 39q85 0 155 -24.5t113.5 -65t67 -91t23.5 -105.5q0 -54 -14 -99t-45.5 -85.5t-92 -63.5t-145.5 -23h-416q7 -426 334 -426h317v-51q-184 -30 -317 -30q-113 0 -195.5 38.5t-131 111.5t-71 167t-22.5 215zM211 563h414 q62 0 106.5 17t67 46.5t32 61.5t9.5 70q0 82 -74.5 143.5t-202.5 61.5q-87 0 -154 -31t-108 -86.5t-63 -126t-27 -156.5zM526 1147l144 287h133l-185 -287h-92z" />
<glyph unicode="&#xea;" horiz-adv-x="1064" d="M123 512q0 119 25.5 214.5t78 167.5t138 111t198.5 39q85 0 155 -24.5t113.5 -65t67 -91t23.5 -105.5q0 -54 -14 -99t-45.5 -85.5t-92 -63.5t-145.5 -23h-416q7 -426 334 -426h317v-51q-184 -30 -317 -30q-113 0 -195.5 38.5t-131 111.5t-71 167t-22.5 215zM211 563h414 q62 0 106.5 17t67 46.5t32 61.5t9.5 70q0 82 -74.5 143.5t-202.5 61.5q-87 0 -154 -31t-108 -86.5t-63 -126t-27 -156.5zM307 1147l205 287h82l205 -287h-92l-154 184l-154 -184h-92z" />
<glyph unicode="&#xeb;" d="M123 512q0 119 25.5 214.5t78 167.5t138 111t198.5 39q85 0 155 -24.5t113.5 -65t67 -91t23.5 -105.5q0 -54 -14 -99t-45.5 -85.5t-92 -63.5t-145.5 -23h-416q7 -426 334 -426h317v-51q-184 -30 -317 -30q-113 0 -195.5 38.5t-131 111.5t-71 167t-22.5 215zM211 563h414 q62 0 106.5 17t67 46.5t32 61.5t9.5 70q0 82 -74.5 143.5t-202.5 61.5q-87 0 -154 -31t-108 -86.5t-63 -126t-27 -156.5zM297 1208v226h82v-226h-82zM707 1208v226h81v-226h-81z" />
<glyph unicode="&#xec;" horiz-adv-x="368" d="M-51 1434h133l143 -287h-92zM143 0v1024h82v-1024h-82z" />
<glyph unicode="&#xed;" horiz-adv-x="368" d="M143 0v1024h82v-1024h-82zM143 1147l144 287h133l-184 -287h-93z" />
<glyph unicode="&#xee;" horiz-adv-x="368" d="M-61 1147l204 287h82l205 -287h-92l-154 184l-153 -184h-92zM143 0v1024h82v-1024h-82z" />
<glyph unicode="&#xef;" horiz-adv-x="368" d="M-61 1208v226h81v-226h-81zM143 0v1024h82v-1024h-82zM348 1208v226h82v-226h-82z" />
<glyph unicode="&#xf0;" horiz-adv-x="1105" d="M123 410q0 225 112 322t349 97q121 0 303 -28q-14 203 -92 334l-201 -76l-21 63l183 68q-108 131 -295 131h-277v61q8 1 38 6t36.5 6t30 4.5t31 4.5t26.5 3.5t29 3t26 1.5t30 1.5t30 0.5q249 0 385 -188l219 82l20 -64l-204 -76q102 -183 102 -471q0 -66 -1.5 -117 t-7 -113.5t-15 -110.5t-26.5 -100.5t-40 -91t-57.5 -75t-77.5 -59t-100 -36t-126 -13.5q-190 0 -299.5 110t-109.5 320zM215 410q0 -178 82 -258t235 -80q53 0 98 10.5t78.5 29.5t60.5 45.5t45.5 58.5t33 69.5t21.5 77.5t13 82.5t7 85.5t2 85.5t0 82.5v38h-307 q-193 0 -281 -79t-88 -248z" />
<glyph unicode="&#xf1;" d="M143 0v1024h82v-133h4q119 153 344 153q152 0 240 -84t88 -223v-737h-82v737q0 106 -74.5 169t-191.5 63q-78 0 -152 -34t-125 -102.5t-51 -156.5v-676h-82zM215 1260q50 61 95.5 86.5t99.5 25.5q49 0 122 -36t103 -36q77 0 153 82l41 -51q-50 -61 -95 -86.5t-99 -25.5 q-33 0 -113.5 35.5t-111.5 35.5q-78 0 -154 -82z" />
<glyph unicode="&#xf2;" horiz-adv-x="1085" d="M102 512q0 121 22.5 215t71 167t131 111.5t195.5 38.5t195.5 -38.5t131 -111.5t71 -167t22.5 -215t-22.5 -215t-71 -167t-131 -111.5t-195.5 -38.5t-195.5 38.5t-131 111.5t-71 167t-22.5 215zM188 512q0 -77 10 -142t33.5 -124.5t61 -100.5t96 -65.5t133.5 -24.5 t133.5 24.5t96 65.5t61 100.5t33.5 124.5t10 142t-10 142t-33.5 124.5t-61 100.5t-96 65.5t-133.5 24.5t-133.5 -24.5t-96 -65.5t-61 -100.5t-33.5 -124.5t-10 -142zM334 1434h133l143 -287h-92z" />
<glyph unicode="&#xf3;" horiz-adv-x="1085" d="M102 512q0 121 22.5 215t71 167t131 111.5t195.5 38.5t195.5 -38.5t131 -111.5t71 -167t22.5 -215t-22.5 -215t-71 -167t-131 -111.5t-195.5 -38.5t-195.5 38.5t-131 111.5t-71 167t-22.5 215zM188 512q0 -77 10 -142t33.5 -124.5t61 -100.5t96 -65.5t133.5 -24.5 t133.5 24.5t96 65.5t61 100.5t33.5 124.5t10 142t-10 142t-33.5 124.5t-61 100.5t-96 65.5t-133.5 24.5t-133.5 -24.5t-96 -65.5t-61 -100.5t-33.5 -124.5t-10 -142zM498 1147l143 287h133l-184 -287h-92z" />
<glyph unicode="&#xf4;" horiz-adv-x="1085" d="M102 512q0 121 22.5 215t71 167t131 111.5t195.5 38.5t195.5 -38.5t131 -111.5t71 -167t22.5 -215t-22.5 -215t-71 -167t-131 -111.5t-195.5 -38.5t-195.5 38.5t-131 111.5t-71 167t-22.5 215zM188 512q0 -77 10 -142t33.5 -124.5t61 -100.5t96 -65.5t133.5 -24.5 t133.5 24.5t96 65.5t61 100.5t33.5 124.5t10 142t-10 142t-33.5 124.5t-61 100.5t-96 65.5t-133.5 24.5t-133.5 -24.5t-96 -65.5t-61 -100.5t-33.5 -124.5t-10 -142zM297 1147l205 287h82l204 -287h-92l-153 184l-154 -184h-92z" />
<glyph unicode="&#xf5;" horiz-adv-x="1085" d="M102 512q0 121 22.5 215t71 167t131 111.5t195.5 38.5t195.5 -38.5t131 -111.5t71 -167t22.5 -215t-22.5 -215t-71 -167t-131 -111.5t-195.5 -38.5t-195.5 38.5t-131 111.5t-71 167t-22.5 215zM188 512q0 -77 10 -142t33.5 -124.5t61 -100.5t96 -65.5t133.5 -24.5 t133.5 24.5t96 65.5t61 100.5t33.5 124.5t10 142t-10 142t-33.5 124.5t-61 100.5t-96 65.5t-133.5 24.5t-133.5 -24.5t-96 -65.5t-61 -100.5t-33.5 -124.5t-10 -142zM236 1260q50 61 95 86.5t99 25.5q49 0 122 -36t103 -36q78 0 154 82l41 -51q-50 -61 -95.5 -86.5 t-99.5 -25.5q-33 0 -113.5 35.5t-111.5 35.5q-78 0 -154 -82z" />
<glyph unicode="&#xf6;" horiz-adv-x="1085" d="M102 512q0 121 22.5 215t71 167t131 111.5t195.5 38.5t195.5 -38.5t131 -111.5t71 -167t22.5 -215t-22.5 -215t-71 -167t-131 -111.5t-195.5 -38.5t-195.5 38.5t-131 111.5t-71 167t-22.5 215zM188 512q0 -77 10 -142t33.5 -124.5t61 -100.5t96 -65.5t133.5 -24.5 t133.5 24.5t96 65.5t61 100.5t33.5 124.5t10 142t-10 142t-33.5 124.5t-61 100.5t-96 65.5t-133.5 24.5t-133.5 -24.5t-96 -65.5t-61 -100.5t-33.5 -124.5t-10 -142zM297 1208v226h82v-226h-82zM707 1208v226h81v-226h-81z" />
<glyph unicode="&#xf7;" d="M164 471v82h717v-82h-717zM481 92v225h82v-225h-82zM481 707v225h82v-225h-82z" />
<glyph unicode="&#xf8;" horiz-adv-x="1085" d="M123 512q0 121 22.5 215t71 167t131 111.5t195.5 38.5q156 0 252 -75l86 137h82l-115 -184q115 -135 115 -410q0 -121 -22.5 -215t-71 -167t-131 -111.5t-195.5 -38.5q-146 0 -240 63l-78 -125h-82l105 170q-125 131 -125 424zM209 512q0 -231 86 -348l457 735 q-83 70 -209 70q-75 0 -133.5 -24.5t-96 -65.5t-61 -100.5t-33.5 -124.5t-10 -142zM346 115q75 -60 197 -60q75 0 133.5 24.5t96 65.5t61 100.5t33.5 124.5t10 142q0 217 -78 332z" />
<glyph unicode="&#xf9;" d="M143 287v737h82v-737q0 -106 75 -169t192 -63q78 0 152 34t124.5 102.5t50.5 156.5v676h82v-1024h-82v133h-4q-119 -153 -344 -153q-152 0 -240 84t-88 223zM326 1434h133l143 -287h-92z" />
<glyph unicode="&#xfa;" d="M143 287v737h82v-737q0 -106 75 -169t192 -63q78 0 152 34t124.5 102.5t50.5 156.5v676h82v-1024h-82v133h-4q-119 -153 -344 -153q-152 0 -240 84t-88 223zM465 1147l143 287h133l-184 -287h-92z" />
<glyph unicode="&#xfb;" d="M143 287v737h82v-737q0 -106 75 -169t192 -63q78 0 152 34t124.5 102.5t50.5 156.5v676h82v-1024h-82v133h-4q-119 -153 -344 -153q-152 0 -240 84t-88 223zM276 1147l205 287h82l205 -287h-92l-154 184l-153 -184h-93z" />
<glyph unicode="&#xfc;" d="M143 287v737h82v-737q0 -106 75 -169t192 -63q78 0 152 34t124.5 102.5t50.5 156.5v676h82v-1024h-82v133h-4q-119 -153 -344 -153q-152 0 -240 84t-88 223zM276 1208v226h82v-226h-82zM686 1208v226h82v-226h-82z" />
<glyph unicode="&#xfd;" horiz-adv-x="901" d="M20 1024h93l338 -922h4l333 922h93l-359 -963q-49 -132 -122 -268.5t-134 -222.5l-55 39l199 371zM418 1147l143 287h133l-184 -287h-92z" />
<glyph unicode="&#xfe;" horiz-adv-x="1064" d="M143 -410v1844h82v-543h4q65 83 138.5 118t175.5 35q399 0 399 -532q0 -119 -25.5 -214.5t-78 -167.5t-138 -111t-198.5 -39q-123 0 -277 20v-410h-82zM225 61h277q94 0 164 35.5t110.5 98.5t60 142t19.5 175q0 78 -9 142.5t-32 124.5t-59.5 100.5t-96 65t-137.5 24.5 q-120 0 -208.5 -80.5t-88.5 -212.5v-615z" />
<glyph unicode="&#xff;" horiz-adv-x="901" d="M20 1024h93l338 -922h4l333 922h93l-359 -963q-49 -132 -122 -268.5t-134 -222.5l-55 39l199 371zM205 1208v226h82v-226h-82zM614 1208v226h82v-226h-82z" />
<glyph unicode="&#x152;" horiz-adv-x="1937" d="M143 696q0 80 5.5 150t20.5 144t39 134.5t63 115.5t90.5 92t123.5 59t160 22q288 0 412 -233v213h758v-82h-666v-553h563v-82h-563v-594h666v-82h-758v213q-124 -233 -412 -233q-88 0 -160 22t-123.5 59t-90.5 91.5t-63 115t-39 134.5t-20.5 144t-5.5 150zM236 696 q0 -624 409 -624q410 0 410 624q0 625 -410 625q-409 0 -409 -625z" />
<glyph unicode="&#x153;" horiz-adv-x="1802" d="M123 512q0 121 22.5 215t71 167t131 111.5t195.5 38.5q292 0 381 -262q99 262 397 262q85 0 155 -24.5t113 -65t66.5 -91t23.5 -105.5q0 -54 -14 -99t-45.5 -85.5t-92 -63.5t-145.5 -23h-415q7 -426 333 -426h318v-51q-185 -30 -318 -30q-290 0 -378 251 q-92 -251 -379 -251q-113 0 -195.5 38.5t-131 111.5t-71 167t-22.5 215zM209 512q0 -77 10 -142t33.5 -124.5t61 -100.5t96 -65.5t133.5 -24.5t133.5 24.5t96 65.5t61 100.5t33.5 124.5t10 142t-10 142t-33.5 124.5t-61 100.5t-96 65.5t-133.5 24.5t-133.5 -24.5t-96 -65.5 t-61 -100.5t-33.5 -124.5t-10 -142zM969 563h413q62 0 106.5 17t67 46.5t32 61.5t9.5 70q0 82 -74 143.5t-202 61.5q-87 0 -154 -31t-108 -86.5t-63 -126t-27 -156.5z" />
<glyph unicode="&#x178;" horiz-adv-x="1105" d="M61 1393h105l385 -795h4l389 795h100l-448 -901v-492h-92v492zM307 1556v226h82v-226h-82zM717 1556v226h82v-226h-82z" />
<glyph unicode="&#x2c6;" horiz-adv-x="737" d="M123 1147l205 287h82l204 -287h-92l-153 184l-154 -184h-92z" />
<glyph unicode="&#x2dc;" horiz-adv-x="860" d="M123 1260q50 61 95 86.5t99 25.5q49 0 122.5 -36t103.5 -36q77 0 153 82l41 -51q-50 -61 -95 -86.5t-99 -25.5q-33 0 -114 35.5t-112 35.5q-77 0 -153 -82z" />
<glyph unicode="&#x2000;" horiz-adv-x="891" />
<glyph unicode="&#x2001;" horiz-adv-x="1782" />
<glyph unicode="&#x2002;" horiz-adv-x="891" />
<glyph unicode="&#x2003;" horiz-adv-x="1782" />
<glyph unicode="&#x2004;" horiz-adv-x="594" />
<glyph unicode="&#x2005;" horiz-adv-x="445" />
<glyph unicode="&#x2006;" horiz-adv-x="297" />
<glyph unicode="&#x2007;" horiz-adv-x="297" />
<glyph unicode="&#x2008;" horiz-adv-x="222" />
<glyph unicode="&#x2009;" horiz-adv-x="356" />
<glyph unicode="&#x200a;" horiz-adv-x="99" />
<glyph unicode="&#x2010;" d="M164 502v82h717v-82h-717z" />
<glyph unicode="&#x2011;" d="M164 502v82h717v-82h-717z" />
<glyph unicode="&#x2012;" d="M164 502v82h717v-82h-717z" />
<glyph unicode="&#x2013;" horiz-adv-x="1351" d="M164 502v82h1024v-82h-1024z" />
<glyph unicode="&#x2014;" horiz-adv-x="1761" d="M164 502v82h1433v-82h-1433z" />
<glyph unicode="&#x2018;" horiz-adv-x="368" d="M143 901v123q0 178 31 369h51v-492h-82z" />
<glyph unicode="&#x2019;" horiz-adv-x="368" d="M143 901v492h82v-123q0 -184 -30 -369h-52z" />
<glyph unicode="&#x201a;" horiz-adv-x="368" d="M143 225h82v-123q0 -183 -30 -368h-52v491z" />
<glyph unicode="&#x201c;" horiz-adv-x="716" d="M143 901v123q0 178 31 369h51v-492h-82zM492 901v123q0 184 30 369h51v-492h-81z" />
<glyph unicode="&#x201d;" horiz-adv-x="716" d="M143 901v492h82v-123q0 -184 -30 -369h-52zM492 901v492h81v-123q0 -184 -30 -369h-51z" />
<glyph unicode="&#x201e;" horiz-adv-x="716" d="M143 225h82v-123q0 -183 -30 -368h-52v491zM492 225h81v-123q0 -183 -30 -368h-51v491z" />
<glyph unicode="&#x2022;" horiz-adv-x="327" d="M123 532v226h82v-226h-82z" />
<glyph unicode="&#x2026;" horiz-adv-x="1024" d="M143 0v225h82v-225h-82zM471 0v225h82v-225h-82zM799 0v225h82v-225h-82z" />
<glyph unicode="&#x202f;" horiz-adv-x="356" />
<glyph unicode="&#x2039;" horiz-adv-x="778" d="M164 512v61l450 328v-92l-358 -266l358 -267v-92z" />
<glyph unicode="&#x203a;" horiz-adv-x="778" d="M164 184v92l358 267l-358 266v92l450 -328v-61z" />
<glyph unicode="&#x205f;" horiz-adv-x="445" />
<glyph unicode="&#x20ac;" horiz-adv-x="1290" d="M143 440v82h152q-8 76 -8 174q0 78 6 154h-150v82h162q13 81 37 150t65 131.5t96 105.5t133 68.5t173 25.5q147 0 338 -31v-61h-338q-93 0 -166.5 -31.5t-121 -88t-77 -122.5t-45.5 -147h461v-82h-473q-8 -71 -8 -154q0 -100 10 -174h471v-82h-457q84 -368 406 -368h338 v-62q-185 -30 -338 -30q-115 0 -204.5 35.5t-147.5 100.5t-93.5 144.5t-54.5 179.5h-166z" />
<glyph unicode="&#x2122;" horiz-adv-x="1345" d="M102 1352v41h455v-41h-205v-656h-45v656h-205zM639 696l49 697h57l195 -615h2l186 615h58l57 -697h-43l-51 604h-2l-186 -604h-41l-193 604h-2l-43 -604h-43z" />
<glyph unicode="&#xe000;" horiz-adv-x="1024" d="M0 0v1024h1024v-1024h-1024z" />
</font>
</defs>
</svg>
